# xmcd
#
# Track frame offsets:
#	150
#	19727
#	36205
#	57367
#	76045
#	94052
#	110170
#	127280
#	145117
#	163712
#	182020
#	196795
#	218162
#	242270
#	254407
#	271887
#	284857
#	300725
#
# Disc length: 4279 seconds
#
# Revision: 1
# Processed by: cddbd v1.5.1PL0 Copyright (c) Steve Scherf et al.
# Submitted via: CDex 1.50Beta5
#
DISCID=0510b512
DTITLE=メルティランサー - THE 3rd Planet オリジナル・ゲーム・サウンドトラック
DYEAR=1900
DGENRE=Game
TTITLE0=Identify(歌:アンジェラ/Cv丹下桜)
TTITLE1=シルビィ
TTITLE2=アンジェラ
TTITLE3=サクヤ
TTITLE4=ジュン
TTITLE5=メルビナ
TTITLE6=ナナ
TTITLE7=パティ
TTITLE8=ルナシティ
TTITLE9=王党派
TTITLE10=破戒神官
TTITLE11=特別機動班・維新組
TTITLE12=プライベート〜つかのまの休息〜
TTITLE13=ヴァケーション〜つかのまの休日〜
TTITLE14=革命軍
TTITLE15=ヴァネッサーズ
TTITLE16=冬
TTITLE17=Destiny(歌:パティ/CV菊池志穂)
EXTD=
EXTT0=
EXTT1=
EXTT2=
EXTT3=
EXTT4=
EXTT5=
EXTT6=
EXTT7=
EXTT8=
EXTT9=
EXTT10=
EXTT11=
EXTT12=
EXTT13=
EXTT14=
EXTT15=
EXTT16=
EXTT17=
PLAYORDER=
